<?xml version="1.0" encoding="UTF-8" standalone="no"?>
<!-- Created with Inkscape (http://www.inkscape.org/) -->

<svg
   xmlns:dc="http://purl.org/dc/elements/1.1/"
   xmlns:cc="http://creativecommons.org/ns#"
   xmlns:rdf="http://www.w3.org/1999/02/22-rdf-syntax-ns#"
   xmlns:svg="http://www.w3.org/2000/svg"
   xmlns="http://www.w3.org/2000/svg"
   xmlns:sodipodi="http://sodipodi.sourceforge.net/DTD/sodipodi-0.dtd"
   xmlns:inkscape="http://www.inkscape.org/namespaces/inkscape"
   width="300"
   height="300"
   id="svg2"
   version="1.1"
   inkscape:version="0.91 r13725"
   sodipodi:docname="Logo traduction vert.svg">
  <defs
     id="defs4" />
  <sodipodi:namedview
     id="base"
     pagecolor="#ffffff"
     bordercolor="#666666"
     borderopacity="1.0"
     inkscape:pageopacity="0.0"
     inkscape:pageshadow="2"
     inkscape:zoom="2.3755651"
     inkscape:cx="80.540368"
     inkscape:cy="24.852949"
     inkscape:document-units="px"
     inkscape:current-layer="layer1"
     showgrid="false"
     inkscape:snap-object-midpoints="true"
     inkscape:snap-center="true"
     inkscape:object-paths="true"
     inkscape:object-nodes="true"
     inkscape:snap-global="true"
     inkscape:snap-smooth-nodes="false"
     inkscape:snap-intersection-paths="true"
     showguides="true"
     inkscape:guide-bbox="true"
     fit-margin-top="0"
     fit-margin-left="0"
     fit-margin-right="0"
     fit-margin-bottom="0"
     inkscape:window-width="1920"
     inkscape:window-height="1017"
     inkscape:window-x="-8"
     inkscape:window-y="-8"
     inkscape:window-maximized="1"
     inkscape:snap-page="true"
     showborder="true" />
  <metadata
     id="metadata7">
    <rdf:RDF>
      <cc:Work
         rdf:about="">
        <dc:format>image/svg+xml</dc:format>
        <dc:type
           rdf:resource="http://purl.org/dc/dcmitype/StillImage" />
        <dc:title></dc:title>
      </cc:Work>
    </rdf:RDF>
  </metadata>
  <g
     inkscape:label="Calque 1"
     inkscape:groupmode="layer"
     id="layer1"
     transform="translate(-177.14267,-343.79136)">
    <g
       id="g4143"
       transform="matrix(3,0,0,3,-354.28534,-1287.5826)">
      <circle
         r="50"
         style="fill:#00af89;fill-opacity:1"
         cx="227.14267"
         cy="593.79132"
         id="circle4657" />
      <g
         transform="matrix(1.0673783,0,0,1.0673783,-13.364175,-42.717245)"
         id="g4264">
        <path
           id="path3779"
           d="m 200.54214,606.97554 c -1.21476,-0.0559 -2.29284,0.90062 -2.35597,2.13622 -1.5e-4,0.003 1.5e-4,0.009 0,0.0118 -0.27355,5.07228 2.45741,9.79135 6.93276,12.04049 0.003,10e-4 0.003,0.004 0.006,0.006 1.67231,0.85608 3.47634,1.30579 5.28769,1.35941 0.87372,0.0259 1.74809,-0.0527 2.6086,-0.21186 l -0.48764,1.09459 c -0.50304,1.12824 0.0115,2.47022 1.13979,2.96599 0.007,0.003 0.0165,0.009 0.0235,0.0118 0.28686,0.12593 0.57395,0.16884 0.83428,0.17655 0.88062,0.0261 1.74233,-0.47061 2.12683,-1.33587 l 2.86123,-6.47339 0.0118,-0.0294 c -7e-5,1.1e-4 0,-0.006 0,-0.006 l 0.006,0 0.0176,-0.0412 0.0294,-0.0706 c -0.003,0.007 -0.003,0.0289 -0.006,0.0353 0.008,-0.0158 0.01,-0.037 0.0176,-0.0589 l 0.0352,-0.0765 0,-0.0353 c 0.009,-0.0206 0.0148,-0.0755 0.0235,-0.1177 l 0.006,-0.0235 c 0.0546,-0.19429 0.0547,-0.24305 0.0294,-0.15301 l 0.0353,-0.1177 0,-0.11181 0.006,-0.14712 0,-0.0412 c 0.005,-0.15532 -9.4e-4,-0.22542 -0.006,-0.21774 l 0,-0.0589 -0.0235,-0.10592 c -0.002,-0.0102 -0.009,-0.0301 -0.0118,-0.0412 l 0.006,-0.0412 -0.047,-0.14712 c 0.004,0.0138 -0.0161,-0.0675 -0.0646,-0.18244 -0.0231,-0.0645 -0.0507,-0.1049 -0.0764,-0.14712 -0.0131,-0.0261 -0.0121,-0.0382 -0.0118,-0.0353 -0.005,-0.008 -0.0127,-0.0222 -0.0176,-0.0294 l -0.0646,-0.14124 -0.0411,-0.0412 -0.047,-0.0765 c -0.10168,-0.16301 -0.17923,-0.23016 -0.21738,-0.2707 l -0.0235,-0.0294 c -0.0587,-0.0624 -0.0982,-0.0882 -0.1175,-0.10593 -0.009,-0.005 -0.022,-0.007 -0.0352,-0.0176 -0.20534,-0.21608 -0.23807,-0.2322 -0.0764,-0.0589 -0.0114,-0.008 -0.0198,-0.0176 -0.0294,-0.0235 -0.002,-0.002 -0.004,0.002 -0.006,0 -0.002,-10e-4 0.001,-0.005 0,-0.006 l -0.0588,-0.0589 -0.0764,-0.053 c -0.02,-0.0142 -0.0406,-0.0172 -0.0588,-0.0294 -0.0723,-0.0486 -0.14946,-0.0923 -0.24089,-0.12947 l 0.006,-0.006 -0.0588,-0.0235 -6.55087,-2.87771 -0.006,0 c -1.12836,-0.5028 -2.46241,0.029 -2.96111,1.14756 -0.5043,1.13107 0.0221,2.47139 1.1398,2.97187 l 0.006,0 0.006,0 2.17383,0.95924 c -1.66209,0.2869 -3.40323,0.0509 -4.96456,-0.75327 l -0.10571,-0.053 c -2.8309,-1.45508 -4.55574,-4.46025 -4.38879,-7.73864 0.0582,-1.21973 -0.90154,-2.30466 -2.13857,-2.36573 z"
           style="color:#000000;font-style:normal;font-variant:normal;font-weight:normal;font-stretch:normal;font-size:medium;line-height:normal;font-family:Sans;-inkscape-font-specification:Sans;text-indent:0;text-align:start;text-decoration:none;text-decoration-line:none;letter-spacing:normal;word-spacing:normal;text-transform:none;direction:ltr;block-progression:tb;writing-mode:lr-tb;baseline-shift:baseline;text-anchor:start;display:inline;overflow:visible;visibility:visible;fill:#ffffff;fill-opacity:1;fill-rule:nonzero;stroke:none;stroke-width:14.34062099;stroke-linecap:round;stroke-linejoin:round;stroke-miterlimit:4;stroke-dasharray:none;stroke-opacity:1;marker:none;enable-background:accumulate"
           inkscape:connector-curvature="0" />
        <path
           id="path3781"
           d="m 237.82039,561.26756 c -0.87715,-0.0127 -1.72329,0.4907 -2.09158,1.34176 -0.002,0.004 -0.004,0.008 -0.006,0.0118 l -2.88474,6.53223 0,0.006 -0.006,0.006 -0.0235,0.0471 c -0.004,0.0122 -0.006,0.0246 -0.0118,0.0412 -9.4e-4,0.003 -0.005,0.009 -0.006,0.0118 l -0.006,0 -0.0118,0.0294 c 0.004,-0.005 0.009,-9e-5 0.0118,0 l -0.006,0.0118 c -0.002,0.002 -0.009,0.002 -0.0118,0.006 l -0.006,0.0176 c -10e-4,0.003 0.001,0.0195 0,0.0235 -3.8e-4,7.5e-4 -0.006,0.005 -0.006,0.006 -0.0126,0.021 -0.0223,0.0738 -0.0352,0.13535 l 0,0.0235 c -0.0273,0.0971 -0.0423,0.16259 -0.047,0.18831 l -0.0176,0.0824 0,0.1177 -0.006,0.14124 0,0.0412 c -0.004,0.13495 0.002,0.15566 0.006,0.14124 l 0,0.0118 -0.006,0.12358 0.0235,0.11182 c 0.002,0.0102 0.009,0.0301 0.0118,0.0412 l 0,0.0412 0.0411,0.14124 c -0.004,-0.0138 0.0161,0.0675 0.0646,0.18243 0.0231,0.0645 0.0507,0.1049 0.0764,0.14713 0.0131,0.0261 0.0121,0.0382 0.0118,0.0353 0.002,0.004 0.009,0.008 0.0118,0.0118 -0.003,-0.008 0.0131,0.0332 0.006,0.0176 l 0.0646,0.14124 0.0411,0.0412 0.0529,0.0765 c 0.10167,0.163 0.17923,0.23016 0.21738,0.2707 l 0.0235,0.0235 0,0.006 c 0.1329,0.14122 0.17016,0.16955 0.0881,0.0824 0.0258,0.0274 0.0323,0.019 0.0588,0.0412 0.20534,0.21608 0.23806,0.2322 0.0764,0.0589 0.0136,0.0139 0.0155,0.011 0.0294,0.0235 0.002,9.4e-4 0.004,0.005 0.006,0.006 0.001,7.6e-4 0.005,-7.5e-4 0.006,0 l 0.0529,0.0589 0.0764,0.053 c 0.02,0.0142 0.0405,0.0172 0.0588,0.0294 0.0723,0.0486 0.14946,0.0923 0.24089,0.12947 l -0.006,0.006 0.0588,0.0235 6.55674,2.87772 c 1.12837,0.5028 2.46241,-0.029 2.96111,-1.14756 0.50431,-1.13108 -0.0221,-2.4714 -1.13979,-2.97187 l -0.006,0 -0.006,0 -2.16803,-0.95915 c 1.66208,-0.2869 3.39735,-0.0509 4.95868,0.75326 l 0.10576,0.053 c 2.83089,1.45509 4.55574,4.46025 4.38879,7.73863 -0.0582,1.22107 0.89955,2.30685 2.13857,2.36573 l 0.0117,0 0.006,0 0.0235,0 c 1.20516,0.0357 2.25423,-0.91854 2.31484,-2.1421 0.26123,-5.08187 -2.45231,-9.81992 -6.94451,-12.05815 -0.004,-0.002 -0.008,-0.004 -0.0117,-0.006 -2.48224,-1.27047 -5.24283,-1.62954 -7.87279,-1.14756 l 0.48764,-1.09459 c 0.50353,-1.12934 -0.0211,-2.4713 -1.15154,-2.96599 l 0,-0.006 c -0.005,-0.002 -0.007,-0.004 -0.0117,-0.006 -0.27853,-0.12215 -0.57534,-0.17825 -0.86366,-0.18243 z"
           style="color:#000000;font-style:normal;font-variant:normal;font-weight:normal;font-stretch:normal;font-size:medium;line-height:normal;font-family:Sans;-inkscape-font-specification:Sans;text-indent:0;text-align:start;text-decoration:none;text-decoration-line:none;letter-spacing:normal;word-spacing:normal;text-transform:none;direction:ltr;block-progression:tb;writing-mode:lr-tb;baseline-shift:baseline;text-anchor:start;display:inline;overflow:visible;visibility:visible;fill:#ffffff;fill-opacity:1;fill-rule:nonzero;stroke:none;stroke-width:14.34062099;stroke-linecap:round;stroke-linejoin:round;stroke-miterlimit:4;stroke-dasharray:none;stroke-opacity:1;marker:none;enable-background:accumulate"
           inkscape:connector-curvature="0" />
        <path
           id="path8363"
           d="m 210.35375,566.39919 a 0.94012878,0.94167734 0 0 0 -0.21738,0.0412 l -3.87177,1.24171 a 0.94012878,0.94167734 0 0 0 -0.48765,1.43591 c 0.8317,1.1957 1.54664,2.46266 2.20321,3.76045 l -14.34728,0 a 0.94012878,0.94167734 0 0 0 -0.94003,0.94158 l 0,3.71926 a 0.94012878,0.94167734 0 0 0 0.94003,0.94158 l 7.76116,0 -1.03404,0.41783 a 0.94012878,0.94167734 0 0 0 -0.52877,1.21229 c 2.04638,5.37262 4.55484,9.71874 7.53791,13.05269 -3.44762,2.53711 -8.20897,4.81625 -14.31203,6.7794 a 0.94012878,0.94167734 0 0 0 -0.50527,1.39472 l 2.06808,3.3132 a 0.94012878,0.94167734 0 0 0 1.05754,0.40606 c 6.047,-1.77213 11.40947,-4.45555 16.06872,-8.03289 4.32304,3.30132 9.53178,6.07247 15.63395,8.31536 a 0.94012878,0.94167734 0 0 0 1.10454,-0.35309 l 2.22671,-3.28966 a 0.94012878,0.94167734 0 0 0 -0.45827,-1.41826 c -6.09129,-2.19149 -10.82183,-4.58296 -14.21803,-7.12072 3.16259,-3.64419 5.69695,-8.53881 7.64366,-14.67693 l 6.01622,0 a 0.94012878,0.94167734 0 0 0 0.94004,-0.94158 l 0,-3.71926 a 0.94012878,0.94167734 0 0 0 -0.94004,-0.94158 l -15.37544,0 c -0.75785,-1.86082 -1.76137,-3.85485 -3.09036,-6.03202 a 0.94012878,0.94167734 0 0 0 -0.87541,-0.44725 z m -4.99394,12.08169 12.23808,0 c -1.58558,4.72624 -3.58165,8.36003 -5.94572,10.92237 -2.38941,-2.5394 -4.49842,-6.18707 -6.29236,-10.92237 z"
           style="font-style:normal;font-variant:normal;font-weight:bold;font-stretch:normal;font-size:medium;line-height:125%;font-family:'Microsoft JhengHei';-inkscape-font-specification:'Microsoft JhengHei, Bold';text-align:start;letter-spacing:0px;word-spacing:0px;writing-mode:lr-tb;text-anchor:start;fill:#ffffff;fill-opacity:1;stroke:none;stroke-width:11.07593632;stroke-linecap:round;stroke-linejoin:round;stroke-miterlimit:4;stroke-dasharray:none;stroke-opacity:1"
           inkscape:connector-curvature="0" />
        <path
           id="path3767"
           d="m 239.59471,586.79624 a 0.94012878,0.94167734 0 0 0 -0.88129,0.60614 l -11.84443,31.47242 a 0.94012878,0.94167734 0 0 0 0.88128,1.27114 l 5.35232,0 a 0.94012878,0.94167734 0 0 0 0.88716,-0.63557 l 2.58509,-7.55032 11.2393,0 2.72022,7.56209 a 0.94012878,0.94167734 0 0 0 0.88128,0.6238 l 5.3582,0 a 0.94012878,0.94167734 0 0 0 0.87541,-1.27114 l -11.76219,-31.46653 a 0.94012878,0.94167734 0 0 0 -0.88128,-0.61203 l -5.41107,0 z m 2.56747,8.96269 3.63088,10.27503 -7.22652,0 3.59564,-10.27503 z"
           style="color:#000000;font-style:normal;font-variant:normal;font-weight:normal;font-stretch:normal;font-size:medium;line-height:125%;font-family:'Microsoft JhengHei';-inkscape-font-specification:'Microsoft JhengHei, Bold';text-indent:0;text-align:start;text-decoration:none;text-decoration-line:none;letter-spacing:0;word-spacing:0;text-transform:none;direction:ltr;block-progression:tb;writing-mode:lr-tb;baseline-shift:baseline;text-anchor:start;display:inline;overflow:visible;visibility:visible;fill:#ffffff;fill-opacity:1;fill-rule:nonzero;stroke:none;stroke-width:10;stroke-linecap:round;stroke-linejoin:round;stroke-miterlimit:4;stroke-dasharray:none;stroke-opacity:1;marker:none;enable-background:accumulate"
           inkscape:connector-curvature="0" />
      </g>
    </g>
    <path
       inkscape:connector-curvature="0"
       id="rect4664"
       transform="matrix(0.94213382,0,0,0.94213382,221.37337,237.57393)"
       d="m 652.375,620.8125 -48.5625,48.59375 111.875,111.90625 -111.875,111.875 48.5625,48.59375 L 764.28125,829.875 876.1875,941.78125 924.75,893.1875 812.875,781.3125 924.75,669.40625 876.1875,620.8125 764.28125,732.71875 652.375,620.8125 Z"
       style="fill:#ffffff;fill-opacity:1;fill-rule:nonzero;stroke:none" />
    <path
       style="fill:#ffffff;fill-opacity:1;fill-rule:nonzero;stroke:none"
       d="m 652.375,620.8125 -48.5625,48.59375 111.875,111.90625 -111.875,111.875 48.5625,48.59375 L 764.28125,829.875 876.1875,941.78125 924.75,893.1875 812.875,781.3125 924.75,669.40625 876.1875,620.8125 764.28125,732.71875 652.375,620.8125 Z"
       transform="matrix(1.8355992e-6,-0.66618921,1.8355992e-6,0.66618921,759.96255,962.32452)"
       id="path3820"
       inkscape:connector-curvature="0" />
    <g
       transform="matrix(3.1435529,0,0,3.1435529,-4699.5492,974.82059)"
       style="font-style:normal;font-variant:normal;font-weight:bold;font-stretch:normal;font-size:144px;line-height:125%;font-family:'College Slab';-inkscape-font-specification:'College Slab Bold';letter-spacing:0px;word-spacing:0px;fill:#ffffff;fill-opacity:1;stroke:none"
       id="text3890">
      <path
         d="m 2494.2863,-197.59079 0,73.872 -17.856,0 0,-73.872 17.856,0 m 2.448,-21.528 c 0,1.5361 -0.312,2.97609 -0.936,4.32 -0.624,1.34409 -1.464,2.52009 -2.52,3.528 -1.008,1.00809 -2.208,1.82409 -3.6,2.448 -1.392,0.57609 -2.88,0.86409 -4.464,0.864 -1.536,9e-5 -3,-0.28791 -4.392,-0.864 -1.344,-0.62391 -2.52,-1.43991 -3.528,-2.448 -1.008,-1.00791 -1.824,-2.18391 -2.448,-3.528 -0.576,-1.34391 -0.864,-2.7839 -0.864,-4.32 0,-1.5839 0.288,-3.0719 0.864,-4.464 0.624,-1.3919 1.44,-2.5919 2.448,-3.6 1.008,-1.00789 2.184,-1.79989 3.528,-2.376 1.392,-0.62389 2.856,-0.93589 4.392,-0.936 1.584,1.1e-4 3.072,0.31211 4.464,0.936 1.392,0.57611 2.592,1.36811 3.6,2.376 1.056,1.0081 1.896,2.2081 2.52,3.6 0.624,1.3921 0.936,2.8801 0.936,4.464"
         style="font-family:Lato;-inkscape-font-specification:'Lato Bold';fill:#ffffff"
         id="path3895"
         inkscape:connector-curvature="0" />
    </g>
  </g>
</svg>
